<?xml version="1.0" encoding="utf-8"?>
<!-- Generator: Adobe Illustrator 24.0.0, SVG Export Plug-In . SVG Version: 6.00 Build 0)  -->
<svg version="1.1" id="Layer_1" xmlns="http://www.w3.org/2000/svg" xmlns:xlink="http://www.w3.org/1999/xlink" x="0px" y="0px"
	 viewBox="0 0 100 100" style="enable-background:new 0 0 100 100;" xml:space="preserve">
<style type="text/css">
	.st0{fill:#FFFFFF;}
	.st1{fill:none;stroke:#FFFFFF;stroke-miterlimit:10;}
</style>
<circle cx="48.93" cy="46.95" r="35.05"/>
<g>
	<g>
		<path class="st0" d="M27.08,42.5c-2.22-10.67-1.74-13.85-0.57-14.33c0.97-0.39,2.72,1.31,6.22,4.71c3.16,3.07,4.73,4.63,4.52,5.84
			C36.9,40.83,32.68,42.24,27.08,42.5z"/>
		<path class="st0" d="M70.79,42.5c2.22-10.67,1.74-13.85,0.57-14.33c-0.97-0.39-2.72,1.31-6.22,4.71
			c-3.16,3.07-4.73,4.63-4.52,5.84C60.97,40.83,65.19,42.24,70.79,42.5z"/>
	</g>
	<g>
		<path class="st0" d="M39.05,51.01c0,1.93-1.57-0.75-3.5-0.75c-1.93,0-3.5,2.68-3.5,0.75c0-1.93,1.57-3.5,3.5-3.5
			C37.49,47.5,39.05,49.07,39.05,51.01z"/>
		<path class="st0" d="M65.82,51.01c0,1.93-1.57-0.75-3.5-0.75c-1.93,0-3.5,2.68-3.5,0.75c0-1.93,1.57-3.5,3.5-3.5
			C64.25,47.5,65.82,49.07,65.82,51.01z"/>
	</g>
	<g>
		<path class="st0" d="M49.22,56.01c-0.1,0.01-0.19,0.02-0.29,0.04c-0.09-0.01-0.19-0.03-0.29-0.04c-2.75-0.25-3.51,0.4-2.13,1.38
			c0.62,0.44,0.95,1.38,2.13,1.38c0.1,0,0.19-0.01,0.29-0.01c0.09,0.01,0.19,0.01,0.29,0.01c1.17,0,1.51-0.94,2.13-1.38
			C52.73,56.4,51.97,55.76,49.22,56.01z"/>
		<g>
			<g>
				<path class="st1" d="M46.52,61.18c-3.18-1.75-8.48-3.94-14.32-2.67c-0.91,0.2-1.77,0.46-2.56,0.77"/>
				<path class="st1" d="M46,62.41c-3.35-1.4-8.85-3-14.53-1.12c-0.89,0.29-1.71,0.65-2.46,1.04"/>
				<path class="st1" d="M45.75,63.65c-3.5-0.96-9.17-1.83-14.55,0.77c-0.84,0.41-1.61,0.87-2.31,1.35"/>
			</g>
			<g>
				<path class="st1" d="M51.34,61.18c3.18-1.75,8.48-3.94,14.32-2.67c0.91,0.2,1.77,0.46,2.56,0.77"/>
				<path class="st1" d="M51.87,62.41c3.35-1.4,8.85-3,14.53-1.12c0.89,0.29,1.71,0.65,2.46,1.04"/>
				<path class="st1" d="M52.12,63.65c3.5-0.96,9.17-1.83,14.55,0.77c0.84,0.41,1.61,0.87,2.31,1.35"/>
			</g>
		</g>
	</g>
</g>
<g>
</g>
<g>
</g>
<g>
</g>
<g>
</g>
<g>
</g>
<g>
</g>
<g>
</g>
<g>
</g>
<g>
</g>
<g>
</g>
<g>
</g>
<g>
</g>
<g>
</g>
<g>
</g>
<g>
</g>
</svg>
